# AST/ASF file generated using VICON BodyLanguage
# -----------------------------------------------
:version 1.10
:name VICON
:units
  mass 1.0
  length 0.45
  angle deg
:documentation
   .ast/.asf automatically generated from VICON data using
   VICON BodyBuilder and BodyLanguage model FoxedUp or BRILLIANT.MOD
:root
   order TX TY TZ RX RY RZ
   axis XYZ
   position 0 0 0  
   orientation 0 0 0 
:bonedata
  begin
     id 1 
     name lhipjoint
     direction 0.62366 -0.717238 0.310833 
     length 2.53602 
     axis 0 0 0  XYZ
  end
  begin
     id 2 
     name lfemur
     direction 0.34202 -0.939693 0  
     length 7.40817  
     axis 0 0 20  XYZ
    dof rx ry rz
    limits (-160.0 20.0)
           (-70.0 70.0)
           (-60.0 70.0)
  end
  begin
     id 3 
     name ltibia
     direction 0.34202 -0.939693 0   
     length 7.7045   
     axis 0 0 20   XYZ
    dof rx
    limits (-10.0 170.0)
  end
  begin
     id 4 
     name lfoot
     direction 0.0673888 -0.185149 0.980397   
     length 2.09456   
     axis -90 7.62852e-016 20   XYZ
    dof rx rz
    limits (-45.0 90.0)
           (-70.0 20.0)
  end
  begin
     id 5 
     name ltoes
     direction 1.53575e-011 -4.21994e-011 1   
     length 1.05543   
     axis -90 7.62852e-016 20   XYZ
    dof rx
    limits (-90.0 20.0)
  end
  begin
     id 6 
     name rhipjoint
     direction -0.489018 -0.800347 0.346851   
     length 2.27268  
     axis 0 0 0  XYZ 
  end
  begin
     id 7 
     name rfemur
     direction -0.34202 -0.939693 0   
     length 7.55487   
     axis 0 0 -20   XYZ
    dof rx ry rz
    limits (-160.0 20.0)
           (-70.0 70.0)
           (-70.0 60.0)
  end
  begin
     id 8 
     name rtibia
     direction -0.34202 -0.939693 0   
     length 7.78969   
     axis 0 0 -20   XYZ
    dof rx
    limits (-10.0 170.0)
 end
 begin
     id 9 
     name rfoot
     direction -0.0859318 -0.236096 0.967923   
     length 2.19143  
     axis -90 -7.62852e-016 -20   XYZ
    dof rx rz
    limits (-45.0 90.0)
           (-20.0 70.0)
  end
  begin
     id 10 
     name rtoes
     direction -1.53538e-011 -4.21989e-011 1   
     length 1.09845   
     axis -90 -7.62852e-016 -20   XYZ
    dof rx
    limits (-90.0 20.0)
  end
  begin
     id 11 
     name lowerback
     direction -0.00762546 0.998978 -0.0445553   
     length 1.98161   
     axis 0 0 0   XYZ
    dof rx ry rz
    limits (-20.0 45.0)
           (-30.0 30.0)
           (-30.0 30.0)
  end
  begin
     id 12 
     name upperback
     direction 0.0422361 0.998867 -0.0219156   
     length 1.97558   
     axis 0 0 0   XYZ
    dof rx ry rz
    limits (-20.0 45.0)
           (-30.0 30.0)
           (-30.0 30.0)
  end
  begin
     id 13 
     name thorax
     direction 0.0442465 0.999021 7.47603e-005   
     length 1.97799   
     axis 0 0 0   XYZ
    dof rx ry rz
    limits (-20.0 45.0)
           (-30.0 30.0)
           (-30.0 30.0)
  end
  begin
     id 14 
     name lowerneck
     direction 0.00312169 0.984641 0.174564   
     length 1.78995   
     axis 0 0 0   XYZ
    dof rx ry rz
    limits (-20.0 45.0)
           (-30.0 30.0)
           (-30.0 30.0)
  end
  begin
     id 15 
     name upperneck
     direction -0.0383028 0.985255 -0.166749   
     length 1.83053   
     axis 0 0 0   XYZ
    dof rx ry rz
    limits (-20.0 45.0)
           (-30.0 30.0)
           (-30.0 30.0)
  end
  begin
     id 16
     name head
     direction -0.0129546 0.997059 -0.0755386  
     length 1.84088  
     axis 0 0 0   XYZ
    dof rx ry rz
    limits (-20.0 45.0)
           (-30.0 30.0)
           (-30.0 30.0)
  end
  begin
     id 17 
     name lclavicle
     direction 0.912857 0.370519 -0.171488  
     length 3.51279  
     axis 0 0 0   XYZ
    dof ry rz
    limits (-20.0 10.0)
           (0.0 20.0)
  end
  begin
     id 18 
     name lhumerus
     direction 1 -4.48962e-011 3.64361e-027   
     length 4.95663   
     axis 180 -30 -90   XYZ
    dof rx ry rz
    limits (-60.0 90.0)
           (-90.0 90.0)
           (-90.0 90.0)
  end
  begin
     id 19
     name lradius
     direction 1 -4.48974e-011 5.97202e-027   
     length 3.38177   
     axis 180 -30 -90   XYZ
    dof rx
    limits (-10.0 170.0)
  end
  begin
     id 20
     name lwrist
     direction 1 -4.4896e-011 9.83288e-027   
     length 1.69088   
     axis -9.31221e-015 90 90   XYZ
    dof ry
    limits (-180.0 0.0)
 end
  begin
     id 21 
     name lhand
     direction 1 -4.4902e-011 1.96551e-026   
     length 0.662909   
     axis -1.25475e-014 90 90   XYZ
    dof rx rz
    limits (-90.0 90.0)
           (-45.0 45.0)
  end
  begin
     id 22 
     name lfingers
     direction 1 -4.48971e-011 3.93277e-026   
     length 0.534454   
     axis -2.50945e-014 90 90   XYZ
    dof rx
    limits (0.0 90.0)
  end
  begin
     id 23
     name lthumb
     direction 0.707107 -6.34933e-011 0.707107   
     length 0.767373   
     axis -90 45 -4.80359e-014   XYZ
    dof rx rz
    limits (-45.0 45.0)
           (-45.0 45.0)
  end
  begin
     id 24 
     name rclavicle
     direction -0.900919 0.395364 -0.178976   
     length 3.40627  
     axis 0 0 0   XYZ 
    dof ry rz
    limits (-10.0 20.0)
           (-20.0 0.0)
  end
  begin
     id 25 
     name rhumerus
     direction -1 -4.48969e-011 1.03875e-027  
     length 5.08365   
     axis 180 30 90   XYZ
    dof rx ry rz
    limits (-90.0 60.0)
           (-90.0 90.0)
           (-90.0 90.0)
  end
  begin
     id 26 
     name rradius
     direction -1 -4.48951e-011 5.02733e-027   
     length 3.35984   
     axis 180 30 90   XYZ
    dof rx
    limits (-10.0 170.0)
  end
  begin
     id 27 
     name rwrist
     direction -1 -4.49011e-011 9.82828e-027   
     length 1.67992   
     axis -9.31221e-015 -90 -90   XYZ
    dof ry
    limits (-180.0 0.0)
  end
  begin
     id 28
     name rhand
     direction -1 -4.48894e-011 1.96774e-026   
     length 0.820764   
     axis -1.25475e-014 -90 -90   XYZ
    dof rx rz
    limits (-90.0 90.0)
           (-45.0 45.0)
  end
  begin
     id 29
     name rfingers
     direction -1 -4.49095e-011 3.92833e-026   
     length 0.661721   
     axis -2.50945e-014 -90 -90   XYZ
    dof rx
    limits (0.0 90.0)
  end
  begin
     id 30
     name rthumb
     direction -0.707107 -6.34881e-011 0.707107   
     length 0.950103   
     axis -90 -45 4.80359e-014   XYZ
    dof rx rz
    limits (-45.0 45.0)
           (-45.0 45.0)
  end
:hierarchy
  begin
    root lhipjoint rhipjoint lowerback
    lhipjoint lfemur
    lfemur ltibia
    ltibia lfoot
    lfoot ltoes
    rhipjoint rfemur
    rfemur rtibia
    rtibia rfoot
    rfoot rtoes
    lowerback upperback
    upperback thorax
    thorax lowerneck lclavicle rclavicle
    lowerneck upperneck
    upperneck head
    lclavicle lhumerus
    lhumerus lradius
    lradius lwrist
    lwrist lhand lthumb
    lhand lfingers
    rclavicle rhumerus
    rhumerus rradius
    rradius rwrist
    rwrist rhand rthumb
    rhand rfingers
  end

#!OML:ASF I:\golf\golf\golf 2\Subject 1\2002-09-07\Subject1.ASF
:FULLY-SPECIFIED
:DEGREES
16
root -8.14052 17.593 -0.191128 -115.8 86.6166 -131.657
lowerback 5.07889 2.00102 -1.44304
upperback 3.75784 2.76275 4.90144
thorax 0.72296 1.37642 5.76632
lowerneck -15.1511 -2.25151 1.22238
upperneck 36.8867 -0.227741 -5.0488
head 15.49 -0.124987 -2.27076
rclavicle 4.77083e-015 -2.54444e-014
rhumerus -3.87003 -0.115213 -100.571
rradius 21.6563
rwrist -39.9032
rhand -11.4589 -7.33427
rfingers 7.12502
rthumb 14.5784 -36.8019
lclavicle 4.77083e-015 -2.54444e-014
lhumerus -6.74715 -40.3252 108.82
lradius 25.826
lwrist 43.3697
lhand -12.3555 69.5103
lfingers 7.12502
lthumb -166.286 80.9617
rfemur -31.9205 -2.04836 10.4068
rtibia 33.1043
rfoot -10.0392 -9.99636
rtoes -19.6102
lfemur -33.3981 5.15988 -8.56551
ltibia 33.4538
lfoot -12.3958 -5.09445
ltoes -20.0253
17
root -8.14024 17.5932 -0.192621 -116.334 86.5665 -132.192
lowerback 5.05967 1.9973 -1.45247
upperback 3.76025 2.75874 4.94395
thorax 0.73433 1.37425 5.81763
lowerneck -15.1575 -2.26218 1.23258
upperneck 36.9141 -0.23697 -5.06364
head 15.5044 -0.128224 -2.28127
rclavicle 3.18055e-014 1.59028e-014
rhumerus -3.81806 -0.151102 -100.527
rradius 21.67
rwrist -40.0531
rhand -11.3785 -7.43864
rfingers 7.12502
rthumb 14.6558 -36.9007
lclavicle 3.18055e-014 1.59028e-014
lhumerus -6.82169 -40.3675 108.912
lradius 25.9013
lwrist 43.2234
lhand -12.0985 69.3955
lfingers 7.12502
lthumb -166.038 81.0933
rfemur -31.9111 -2.12406 10.4429
rtibia 33.1035
rfoot -10.2377 -9.89359
rtoes -16.8644
lfemur -33.4303 5.15976 -8.55747
ltibia 33.4466
lfoot -12.3974 -5.14145
ltoes -19.8735
18
root -8.14014 17.5944 -0.194551 -116.516 86.5837 -132.367
lowerback 5.04316 2.01703 -1.41562
upperback 3.7643 2.78529 4.91359
thorax 0.74768 1.38782 5.76384
lowerneck -15.1774 -2.28642 1.22511
upperneck 36.9921 -0.288954 -4.98928
head 15.5453 -0.138475 -2.25945
rclavicle 1.39149e-014 2.70347e-014
rhumerus -3.64312 -0.728692 -100.602
rradius 21.414
rwrist -39.499
rhand -11.4292 -7.46918
rfingers 7.12502
rthumb 14.607 -36.9348
lclavicle 1.39149e-014 2.70347e-014
lhumerus -6.96277 -40.4668 108.932
lradius 26.022
lwrist 43.3093
lhand -12.088 69.2118
lfingers 7.12502
lthumb -166.028 81.2777
rfemur -31.9059 -2.19408 10.4304
rtibia 33.1059
rfoot -10.4172 -9.77584
rtoes -15.4632
lfemur -33.4249 5.17293 -8.59608
ltibia 33.4312
lfoot -12.4093 -5.16973
ltoes -19.5996
19
root -8.14058 17.5947 -0.195884 -116.814 86.6805 -132.662
lowerback 5.03902 2.03688 -1.47413
upperback 3.7578 2.80732 4.86436
thorax 0.740505 1.39756 5.74408
lowerneck -15.179 -2.29396 1.23759
upperneck 37.0482 -0.310344 -4.9524
head 15.5723 -0.138618 -2.25106
rclavicle -2.82274e-014 -9.54166e-015
rhumerus -3.50958 -1.12504 -100.669
rradius 21.1794
rwrist -39.2063
rhand -11.7352 -7.5199
rfingers 7.12502
rthumb 14.3121 -37.0066
lclavicle -2.82274e-014 -9.54166e-015
lhumerus -7.10572 -40.7334 108.964
lradius 26.1995
lwrist 43.9735
lhand -12.7378 69.0128
lfingers 7.12502
lthumb -166.654 81.4346
rfemur -31.9082 -2.20945 10.3307
rtibia 33.1041
rfoot -10.3902 -9.73074
rtoes -15.3936
lfemur -33.3908 5.21576 -8.71287
ltibia 33.4104
lfoot -12.4403 -5.13936
ltoes -19.7325
20
root -8.14029 17.5944 -0.194967 -116.576 86.725 -132.405
lowerback 5.04293 2.05494 -1.54562
upperback 3.75291 2.82843 4.86612
thorax 0.727724 1.40702 5.78534
lowerneck -15.1607 -2.30464 1.26207
upperneck 37.0723 -0.320474 -4.97575
head 15.5789 -0.141072 -2.26738
rclavicle -3.57812e-015 -3.97569e-014
rhumerus -3.47846 -1.17881 -100.662
rradius 21.1083
rwrist -39.2362
rhand -12.0577 -7.64014
rfingers 7.12502
rthumb 14.0014 -37.1486
lclavicle -3.57812e-015 -3.97569e-014
lhumerus -7.262 -41.2315 109.061
lradius 26.488
lwrist 45.209
lhand -14.2621 68.9119
lfingers 7.12502
lthumb -168.124 81.4449
rfemur -31.8915 -2.17492 10.2971
rtibia 33.099
rfoot -10.4551 -9.73287
rtoes -14.97
lfemur -33.3502 5.27335 -8.76059
ltibia 33.398
lfoot -12.4537 -5.07979
ltoes -20.0389
21
root -8.14016 17.5946 -0.193853 -115.979 86.7016 -131.775
lowerback 5.06003 2.06996 -1.54361
upperback 3.75942 2.84972 4.89158
thorax 0.721482 1.41804 5.80944
lowerneck -15.16 -2.32362 1.26939
upperneck 37.094 -0.339777 -4.9962
head 15.5883 -0.14985 -2.28126
rclavicle -2.18663e-014 -1.27222e-014
rhumerus -3.45898 -1.21466 -100.645
rradius 21.0649
rwrist -39.1925
rhand -12.211 -7.72731
rfingers 7.12502
rthumb 13.8536 -37.2459
lclavicle -2.18663e-014 -1.27222e-014
lhumerus -7.34232 -41.6633 109.122
lradius 26.6596
lwrist 46.0036
lhand -15.3973 68.7963
lfingers 7.12502
lthumb -169.218 81.5004
rfemur -31.857 -2.14844 10.3439
rtibia 33.0949
rfoot -10.4074 -9.79375
rtoes -16.303
lfemur -33.3222 5.30756 -8.71719
ltibia 33.4069
lfoot -12.4526 -5.11834
ltoes -19.96
22
root -8.14117 17.5941 -0.194184 -115.742 86.7122 -131.558
lowerback 5.05297 2.08903 -1.53213
upperback 3.74407 2.87477 4.87042
thorax 0.708179 1.43101 5.779
lowerneck -15.1828 -2.34079 1.31273
upperneck 37.1347 -0.371514 -5.00516
head 15.6117 -0.157149 -2.29983
rclavicle -3.29983e-014 -4.77083e-015
rhumerus -3.40933 -1.33304 -100.67
rradius 20.9463
rwrist -39.0506
rhand -12.249 -7.72788
rfingers 7.12502
rthumb 13.817 -37.249
lclavicle -3.29983e-014 -4.77083e-015
lhumerus -7.3007 -41.6885 109.1
lradius 26.5097
lwrist 45.731
lhand -15.2012 68.7962
lfingers 7.12502
lthumb -169.029 81.5104
rfemur -31.8843 -2.14523 10.3411
rtibia 33.0881
rfoot -10.0472 -9.83369
rtoes -19.5269
lfemur -33.3657 5.35473 -8.72487
ltibia 33.4323
lfoot -12.4582 -5.19726
ltoes -19.5993
23
root -8.14225 17.593 -0.196081 -115.972 86.713 -131.814
lowerback 5.04554 2.09124 -1.48028
upperback 3.71411 2.87827 4.82655
thorax 0.685225 1.43404 5.7023
lowerneck -15.153 -2.37049 1.36896
upperneck 37.1221 -0.428654 -5.02332
head 15.5942 -0.175504 -2.32638
rclavicle 1.55052e-014 1.19271e-014
rhumerus -3.38555 -1.41602 -100.72
rradius 20.852
rwrist -39.02
rhand -12.2644 -7.66546
rfingers 7.12502
rthumb 13.8022 -37.1876
lclavicle 1.55052e-014 1.19271e-014
lhumerus -7.16122 -41.2977 109.075
lradius 26.1044
lwrist 44.7682
lhand -13.5354 68.8397
lfingers 7.12502
lthumb -167.423 81.5589
rfemur -31.9118 -2.16331 10.3219
rtibia 33.0831
rfoot -9.95516 -9.79647
rtoes -19.5199
lfemur -33.408 5.37321 -8.74099
ltibia 33.4698
lfoot -12.4466 -5.28462
ltoes -19.0991
